<svg xmlns="http://www.w3.org/2000/svg" version="1.1" xmlns:xlink="http://www.w3.org/1999/xlink" xmlns:svgjs="http://svgjs.dev/svgjs" width="1500" height="1500" viewBox="0 0 1500 1500"><g transform="matrix(1,0,0,1,-0.21332335329316265,-0.21332335329350371)"><svg viewBox="0 0 334 334" data-background-color="#ffffff" preserveAspectRatio="xMidYMid meet" height="1500" width="1500" xmlns="http://www.w3.org/2000/svg" xmlns:xlink="http://www.w3.org/1999/xlink"><g id="tight-bounds" transform="matrix(1,0,0,1,0.04749999999998522,0.04750000000001364)"><svg viewBox="0 0 333.90454557049503 333.90454557049503" height="333.90454557049503" width="333.90454557049503"><g><svg></svg></g><g><svg viewBox="0 0 333.90454557049503 333.90454557049503" height="333.90454557049503" width="333.90454557049503"><g><path d="M0 166.952c0-92.205 74.747-166.952 166.952-166.952 92.205 0 166.952 74.747 166.953 166.952 0 92.205-74.747 166.952-166.953 166.953-92.205 0-166.952-74.747-166.952-166.953zM166.952 316.63c82.665 0 149.677-67.013 149.678-149.678 0-82.665-67.013-149.677-149.678-149.677-82.665 0-149.677 67.013-149.677 149.677 0 82.665 67.013 149.677 149.677 149.678z" data-fill-palette-color="tertiary" fill="#03424c" stroke="transparent"></path><ellipse rx="160.27418187383762" ry="160.27418187383762" cx="166.95227278524752" cy="166.95227278524752" fill="#03424c" stroke="transparent" stroke-width="0" fill-opacity="1" data-fill-palette-color="tertiary"></ellipse></g><g transform="matrix(1,0,0,1,107.41383834977975,71.17305217166896)"><svg viewBox="0 0 119.07686887093551 191.55844122715712" height="191.55844122715712" width="119.07686887093551"><g><svg viewBox="0 0 119.07686887093551 191.55844122715712" height="191.55844122715712" width="119.07686887093551"><g><svg viewBox="0 0 119.07686887093551 191.55844122715712" height="191.55844122715712" width="119.07686887093551"><g><svg viewBox="0 0 119.07686887093551 191.55844122715712" height="191.55844122715712" width="119.07686887093551"><g id="textblocktransform"><svg viewBox="0 0 119.07686887093551 191.55844122715712" height="191.55844122715712" width="119.07686887093551" id="textblock"><g><svg viewBox="0 0 119.07686887093551 191.55844122715712" height="191.55844122715712" width="119.07686887093551"><g transform="matrix(1,0,0,1,0,0)"><svg width="119.07686887093551" viewBox="2 -37 23 37" height="191.55844122715712" data-palette-color="#ffffff"><path d="M24.45-35.55Q24.3-34.6 24.3-33.1L24.3-33.1Q24.3-30.15 25-28.5L25-28.5 24.2-28.5Q23.65-29.55 23.4-31.25L23.4-31.25Q23.05-33.05 22.45-34.08 21.85-35.1 20-35.8 18.15-36.5 14.45-36.5L14.45-36.5Q10.85-36.5 9.65-34.7L9.65-34.7Q9.5-34.35 9.5-34L9.5-34 9.5-21.25 15.15-21.25Q16.6-21.25 17.18-21.33 17.75-21.4 18.05-21.75 18.35-22.1 18.35-22.95L18.35-22.95Q18.35-24.45 18.18-25.2 18-25.95 17.15-25.95L17.15-25.95 17.15-26.6 19.1-26.6 19.1-15 17.15-15 17.15-15.7Q18-15.7 18.18-16.53 18.35-17.35 18.35-18.9L18.35-18.9Q18.35-19.7 17.65-20 16.95-20.3 15.15-20.3L15.15-20.3 9.5-20.3 9.5-3Q9.5-2 10.03-1.48 10.55-0.95 11.5-0.95L11.5-0.95Q12.3-0.95 13.25-1.25L13.25-1.25 13.25 0 2 0 2-1.25Q2.95-0.95 3.75-0.95L3.75-0.95Q4.7-0.95 5.23-1.48 5.75-2 5.75-3L5.75-3 5.75-34Q5.75-35 5.23-35.52 4.7-36.05 3.75-36.05L3.75-36.05Q2.95-36.05 2-35.75L2-35.75 2-37 24.6-37 24.45-35.55Z" opacity="1" transform="matrix(1,0,0,1,0,0)" fill="#ffffff" class="wordmark-text-0" data-fill-palette-color="quaternary" id="text-0"></path></svg></g></svg></g></svg></g></svg></g><g></g></svg></g></svg></g></svg></g></svg></g><defs></defs></svg><rect width="333.90454557049503" height="333.90454557049503" fill="none" stroke="none" visibility="hidden"></rect></g></svg></g></svg>